<svg width="347" height="218" viewBox="0 0 347 218" fill="none" xmlns="http://www.w3.org/2000/svg">
<path d="M21.5723 200.457C21.373 202.227 20.7695 203.797 19.7617 205.168C18.7539 206.527 17.4414 207.576 15.8242 208.314C14.207 209.041 12.4609 209.387 10.5859 209.352C8.89844 209.316 7.42773 208.93 6.17383 208.191C4.91992 207.441 3.92969 206.363 3.20312 204.957C2.48828 203.539 2.08398 201.91 1.99023 200.07C1.9082 198.629 2.05469 196.836 2.42969 194.691C2.81641 192.547 3.49609 190.643 4.46875 188.979C5.45312 187.314 6.61914 185.996 7.9668 185.023C9.86523 183.664 12.0332 183.008 14.4707 183.055C17.1191 183.102 19.2168 183.922 20.7637 185.516C22.3223 187.098 23.1777 189.301 23.3301 192.125L18.1973 192.107C18.1973 190.49 17.875 189.307 17.2305 188.557C16.5859 187.807 15.584 187.408 14.2246 187.361C12.4668 187.303 11.0195 187.93 9.88281 189.242C8.75781 190.555 8.00195 192.471 7.61523 194.99C7.24023 197.439 7.07617 199.273 7.12305 200.492C7.18164 202.039 7.52734 203.182 8.16016 203.92C8.79297 204.646 9.67773 205.027 10.8145 205.062C12.3848 205.121 13.6387 204.752 14.5762 203.955C15.5254 203.146 16.1523 201.992 16.457 200.492L21.5723 200.457ZM34.2988 189.629C35.9746 189.652 37.416 190.086 38.623 190.93C39.8418 191.762 40.7324 192.916 41.2949 194.393C41.8691 195.857 42.0742 197.486 41.9102 199.279C41.6406 202.303 40.5859 204.752 38.7461 206.627C36.918 208.49 34.6562 209.398 31.9609 209.352C30.3086 209.328 28.8789 208.906 27.6719 208.086C26.4648 207.254 25.5742 206.105 25 204.641C24.4258 203.176 24.2207 201.559 24.3848 199.789C24.6895 196.648 25.7559 194.152 27.584 192.301C29.4121 190.449 31.6504 189.559 34.2988 189.629ZM29.2891 201.6C29.3125 202.725 29.5762 203.615 30.0801 204.271C30.584 204.916 31.293 205.25 32.207 205.273C33.7305 205.32 34.9258 204.623 35.793 203.182C36.6602 201.729 37.0645 199.824 37.0059 197.469C36.959 196.344 36.6836 195.447 36.1797 194.779C35.6875 194.1 34.9785 193.748 34.0527 193.725C32.5762 193.678 31.3926 194.375 30.502 195.816C29.623 197.246 29.2188 199.174 29.2891 201.6ZM51.1914 189.963L50.7695 192.213C52.293 190.443 54.1387 189.582 56.3066 189.629C58.0996 189.664 59.4238 190.32 60.2793 191.598C61.1348 192.875 61.4453 194.645 61.2109 196.906L59.207 209H54.25L56.2891 196.854C56.3477 196.396 56.3594 195.98 56.3242 195.605C56.1719 194.41 55.4219 193.795 54.0742 193.76C52.7734 193.713 51.6074 194.316 50.5762 195.57L48.2031 209H43.2461L46.5508 189.98L51.1914 189.963ZM71.1074 202.725L76.5215 189.98H81.8652L72.6719 209H67.9258L64.6738 189.98H69.7012L71.1074 202.725ZM89.7227 209.352C88.0586 209.34 86.582 208.936 85.293 208.139C84.0156 207.33 83.0605 206.229 82.4277 204.834C81.7949 203.428 81.5488 201.881 81.6895 200.193L81.7422 199.49C81.918 197.639 82.457 195.939 83.3594 194.393C84.2617 192.846 85.4219 191.656 86.8398 190.824C88.2578 189.98 89.8281 189.582 91.5508 189.629C94 189.676 95.8516 190.578 97.1055 192.336C98.3711 194.082 98.8516 196.297 98.5469 198.98L98.2656 201.143H86.6113C86.5645 202.373 86.8633 203.357 87.5078 204.096C88.1523 204.834 89.0312 205.215 90.1445 205.238C91.9492 205.285 93.5312 204.588 94.8906 203.146L97.1582 205.959C96.4434 207.037 95.4121 207.881 94.0645 208.49C92.7168 209.088 91.2695 209.375 89.7227 209.352ZM91.3047 193.725C90.3906 193.701 89.5762 193.988 88.8613 194.586C88.1582 195.184 87.5254 196.221 86.9629 197.697H93.7832L93.8887 197.24C93.959 196.771 93.9648 196.326 93.9062 195.904C93.7891 195.225 93.502 194.697 93.0449 194.322C92.5879 193.936 92.0078 193.736 91.3047 193.725ZM112.768 194.744C112.088 194.627 111.531 194.568 111.098 194.568C109.328 194.521 107.928 195.184 106.896 196.555L104.699 209H99.7422L103.047 189.98L107.705 189.963L107.248 192.283C108.443 190.49 109.92 189.594 111.678 189.594C112.17 189.594 112.744 189.676 113.4 189.84L112.768 194.744ZM123.701 203.639C123.889 202.701 123.238 202.021 121.75 201.6L120.15 201.195C116.365 200.152 114.525 198.312 114.631 195.676C114.689 193.883 115.48 192.424 117.004 191.299C118.539 190.162 120.385 189.605 122.541 189.629C124.686 189.652 126.42 190.221 127.744 191.334C129.068 192.447 129.742 193.93 129.766 195.781L124.844 195.764C124.867 194.135 124.059 193.309 122.418 193.285C121.645 193.285 120.971 193.479 120.396 193.865C119.834 194.252 119.488 194.773 119.359 195.43C119.184 196.367 119.893 197.029 121.486 197.416L122.189 197.574C123.807 197.961 125.043 198.406 125.898 198.91C126.754 199.402 127.41 200.018 127.867 200.756C128.336 201.494 128.553 202.379 128.518 203.41C128.482 204.617 128.09 205.672 127.34 206.574C126.602 207.477 125.582 208.174 124.281 208.666C122.992 209.158 121.633 209.387 120.203 209.352C118.094 209.328 116.336 208.725 114.93 207.541C113.523 206.346 112.809 204.805 112.785 202.918L117.461 202.953C117.508 204.77 118.48 205.689 120.379 205.713C121.293 205.713 122.043 205.525 122.629 205.15C123.227 204.775 123.584 204.271 123.701 203.639ZM141.701 189.629C143.377 189.652 144.818 190.086 146.025 190.93C147.244 191.762 148.135 192.916 148.697 194.393C149.271 195.857 149.477 197.486 149.312 199.279C149.043 202.303 147.988 204.752 146.148 206.627C144.32 208.49 142.059 209.398 139.363 209.352C137.711 209.328 136.281 208.906 135.074 208.086C133.867 207.254 132.977 206.105 132.402 204.641C131.828 203.176 131.623 201.559 131.787 199.789C132.092 196.648 133.158 194.152 134.986 192.301C136.814 190.449 139.053 189.559 141.701 189.629ZM136.691 201.6C136.715 202.725 136.979 203.615 137.482 204.271C137.986 204.916 138.695 205.25 139.609 205.273C141.133 205.32 142.328 204.623 143.195 203.182C144.062 201.729 144.467 199.824 144.408 197.469C144.361 196.344 144.086 195.447 143.582 194.779C143.09 194.1 142.381 193.748 141.455 193.725C139.979 193.678 138.795 194.375 137.904 195.816C137.025 197.246 136.621 199.174 136.691 201.6ZM163.779 194.744C163.1 194.627 162.543 194.568 162.109 194.568C160.34 194.521 158.939 195.184 157.908 196.555L155.711 209H150.754L154.059 189.98L158.717 189.963L158.26 192.283C159.455 190.49 160.932 189.594 162.689 189.594C163.182 189.594 163.756 189.676 164.412 189.84L163.779 194.744ZM182.025 189.611C183.795 189.658 185.225 190.367 186.314 191.738L188.178 182H193.152L188.477 209H184.047L184.328 206.961C182.91 208.613 181.258 209.416 179.371 209.369C178.188 209.357 177.15 209.047 176.26 208.438C175.369 207.828 174.678 206.955 174.186 205.818C173.705 204.67 173.441 203.393 173.395 201.986C173.359 201.248 173.377 200.533 173.447 199.842L173.553 199.051C173.834 197.105 174.373 195.395 175.17 193.918C175.979 192.441 176.963 191.346 178.123 190.631C179.295 189.916 180.596 189.576 182.025 189.611ZM178.422 199.842C178.328 200.732 178.299 201.482 178.334 202.092C178.451 204.154 179.283 205.203 180.83 205.238C182.225 205.297 183.438 204.641 184.469 203.27L185.822 195.711C185.365 194.457 184.451 193.801 183.08 193.742C181.873 193.707 180.865 194.176 180.057 195.148C179.26 196.109 178.715 197.674 178.422 199.842ZM201.484 209.352C199.82 209.34 198.344 208.936 197.055 208.139C195.777 207.33 194.822 206.229 194.189 204.834C193.557 203.428 193.311 201.881 193.451 200.193L193.504 199.49C193.68 197.639 194.219 195.939 195.121 194.393C196.023 192.846 197.184 191.656 198.602 190.824C200.02 189.98 201.59 189.582 203.312 189.629C205.762 189.676 207.613 190.578 208.867 192.336C210.133 194.082 210.613 196.297 210.309 198.98L210.027 201.143H198.373C198.326 202.373 198.625 203.357 199.27 204.096C199.914 204.834 200.793 205.215 201.906 205.238C203.711 205.285 205.293 204.588 206.652 203.146L208.92 205.959C208.205 207.037 207.174 207.881 205.826 208.49C204.479 209.088 203.031 209.375 201.484 209.352ZM203.066 193.725C202.152 193.701 201.338 193.988 200.623 194.586C199.92 195.184 199.287 196.221 198.725 197.697H205.545L205.65 197.24C205.721 196.771 205.727 196.326 205.668 195.904C205.551 195.225 205.264 194.697 204.807 194.322C204.35 193.936 203.77 193.736 203.066 193.725ZM228.309 189.963L227.904 192.125C229.439 190.414 231.297 189.582 233.477 189.629C234.648 189.652 235.621 189.922 236.395 190.438C237.168 190.953 237.689 191.65 237.959 192.529C239.635 190.549 241.604 189.582 243.865 189.629C245.611 189.664 246.924 190.262 247.803 191.422C248.693 192.582 249.068 194.258 248.928 196.449L248.893 196.889L246.871 209H241.896L243.918 196.854C243.965 196.42 243.982 196.016 243.971 195.641C243.889 194.41 243.186 193.777 241.861 193.742C240.502 193.742 239.336 194.469 238.363 195.922L238.311 196.326L236.096 209H231.139L233.16 196.889C233.207 196.455 233.225 196.051 233.213 195.676C233.131 194.434 232.434 193.795 231.121 193.76C229.867 193.725 228.736 194.316 227.729 195.535L225.355 209H220.398L223.686 189.98L228.309 189.963ZM261.689 189.629C263.365 189.652 264.807 190.086 266.014 190.93C267.232 191.762 268.123 192.916 268.686 194.393C269.26 195.857 269.465 197.486 269.301 199.279C269.031 202.303 267.977 204.752 266.137 206.627C264.309 208.49 262.047 209.398 259.352 209.352C257.699 209.328 256.27 208.906 255.062 208.086C253.855 207.254 252.965 206.105 252.391 204.641C251.816 203.176 251.611 201.559 251.775 199.789C252.08 196.648 253.146 194.152 254.975 192.301C256.803 190.449 259.041 189.559 261.689 189.629ZM256.68 201.6C256.703 202.725 256.967 203.615 257.471 204.271C257.975 204.916 258.684 205.25 259.598 205.273C261.121 205.32 262.316 204.623 263.184 203.182C264.051 201.729 264.455 199.824 264.396 197.469C264.35 196.344 264.074 195.447 263.57 194.779C263.078 194.1 262.369 193.748 261.443 193.725C259.967 193.678 258.783 194.375 257.893 195.816C257.014 197.246 256.609 199.174 256.68 201.6ZM279.777 209.352C278.113 209.34 276.637 208.936 275.348 208.139C274.07 207.33 273.115 206.229 272.482 204.834C271.85 203.428 271.604 201.881 271.744 200.193L271.797 199.49C271.973 197.639 272.512 195.939 273.414 194.393C274.316 192.846 275.477 191.656 276.895 190.824C278.312 189.98 279.883 189.582 281.605 189.629C284.055 189.676 285.906 190.578 287.16 192.336C288.426 194.082 288.906 196.297 288.602 198.98L288.32 201.143H276.666C276.619 202.373 276.918 203.357 277.562 204.096C278.207 204.834 279.086 205.215 280.199 205.238C282.004 205.285 283.586 204.588 284.945 203.146L287.213 205.959C286.498 207.037 285.467 207.881 284.119 208.49C282.771 209.088 281.324 209.375 279.777 209.352ZM281.359 193.725C280.445 193.701 279.631 193.988 278.916 194.586C278.213 195.184 277.58 196.221 277.018 197.697H283.838L283.943 197.24C284.014 196.771 284.02 196.326 283.961 195.904C283.844 195.225 283.557 194.697 283.1 194.322C282.643 193.936 282.062 193.736 281.359 193.725ZM299.236 189.611C301.006 189.658 302.436 190.367 303.525 191.738L305.389 182H310.363L305.688 209H301.258L301.539 206.961C300.121 208.613 298.469 209.416 296.582 209.369C295.398 209.357 294.361 209.047 293.471 208.438C292.58 207.828 291.889 206.955 291.396 205.818C290.916 204.67 290.652 203.393 290.605 201.986C290.57 201.248 290.588 200.533 290.658 199.842L290.764 199.051C291.045 197.105 291.584 195.395 292.381 193.918C293.189 192.441 294.174 191.346 295.334 190.631C296.506 189.916 297.807 189.576 299.236 189.611ZM295.633 199.842C295.539 200.732 295.51 201.482 295.545 202.092C295.662 204.154 296.494 205.203 298.041 205.238C299.436 205.297 300.648 204.641 301.68 203.27L303.033 195.711C302.576 194.457 301.662 193.801 300.291 193.742C299.084 193.707 298.076 194.176 297.268 195.148C296.471 196.109 295.926 197.674 295.633 199.842ZM320.664 209C320.512 208.52 320.447 207.945 320.471 207.277C319.041 208.707 317.424 209.398 315.619 209.352C313.955 209.328 312.572 208.789 311.471 207.734C310.381 206.668 309.871 205.355 309.941 203.797C310.023 201.723 310.891 200.135 312.543 199.033C314.207 197.92 316.434 197.363 319.223 197.363L321.543 197.398L321.789 196.256C321.859 195.869 321.877 195.5 321.842 195.148C321.783 194.598 321.572 194.17 321.209 193.865C320.857 193.549 320.389 193.385 319.803 193.373C319.029 193.35 318.373 193.543 317.834 193.953C317.295 194.352 316.949 194.932 316.797 195.693L311.822 195.711C311.904 193.895 312.736 192.424 314.318 191.299C315.912 190.162 317.875 189.605 320.207 189.629C322.363 189.676 324.051 190.32 325.27 191.562C326.488 192.793 326.998 194.381 326.799 196.326L325.34 205.432L325.252 206.557C325.229 207.389 325.328 208.092 325.551 208.666L325.533 209H320.664ZM316.85 205.502C318.279 205.549 319.527 204.928 320.594 203.639L321.209 200.352L319.486 200.334C317.658 200.381 316.34 200.938 315.531 202.004C315.238 202.391 315.057 202.865 314.986 203.428C314.893 204.061 315.021 204.564 315.373 204.939C315.736 205.303 316.229 205.49 316.85 205.502ZM339.596 203.639C339.783 202.701 339.133 202.021 337.645 201.6L336.045 201.195C332.26 200.152 330.42 198.312 330.525 195.676C330.584 193.883 331.375 192.424 332.898 191.299C334.434 190.162 336.279 189.605 338.436 189.629C340.58 189.652 342.314 190.221 343.639 191.334C344.963 192.447 345.637 193.93 345.66 195.781L340.738 195.764C340.762 194.135 339.953 193.309 338.312 193.285C337.539 193.285 336.865 193.479 336.291 193.865C335.729 194.252 335.383 194.773 335.254 195.43C335.078 196.367 335.787 197.029 337.381 197.416L338.084 197.574C339.701 197.961 340.938 198.406 341.793 198.91C342.648 199.402 343.305 200.018 343.762 200.756C344.23 201.494 344.447 202.379 344.412 203.41C344.377 204.617 343.984 205.672 343.234 206.574C342.496 207.477 341.477 208.174 340.176 208.666C338.887 209.158 337.527 209.387 336.098 209.352C333.988 209.328 332.23 208.725 330.824 207.541C329.418 206.346 328.703 204.805 328.68 202.918L333.355 202.953C333.402 204.77 334.375 205.689 336.273 205.713C337.188 205.713 337.938 205.525 338.523 205.15C339.121 204.775 339.479 204.271 339.596 203.639Z" fill="#452B4E"/>
<path d="M123.927 133.288C123.382 132.743 122.626 132.43 121.856 132.43C121.085 132.43 120.329 132.743 119.784 133.288C119.239 133.833 118.926 134.589 118.926 135.359C118.926 136.13 119.239 136.886 119.784 137.43C120.329 137.975 121.085 138.289 121.856 138.289C122.626 138.289 123.382 137.976 123.927 137.43C124.472 136.886 124.785 136.13 124.785 135.359C124.785 134.589 124.472 133.833 123.927 133.288Z" fill="#452B4E"/>
<path d="M236.56 53.6006C236.015 53.0554 235.262 52.7422 234.488 52.7422C233.718 52.7422 232.962 53.0554 232.417 53.6006C231.872 54.1455 231.559 54.9014 231.559 55.6719C231.559 56.4425 231.872 57.1984 232.417 57.743C232.962 58.2879 233.718 58.6017 234.488 58.6017C235.262 58.6017 236.015 58.2882 236.56 57.743C237.107 57.1984 237.421 56.4425 237.421 55.6719C237.421 54.9014 237.107 54.1455 236.56 53.6006Z" fill="#452B4E"/>
<path d="M248.142 0.858127C247.592 0.308797 246.847 0 246.07 0L173.999 0.00380869C172.381 0.00380869 171.07 1.31576 171.07 2.93357V11.3118L143.299 18.7531C141.736 19.1721 140.808 20.7785 141.227 22.3412L155.62 76.056L143.169 88.5072C141.584 86.1933 138.924 84.6716 135.914 84.6716H107.789C102.943 84.6716 99 88.6145 99 93.4606V141.215C99 146.061 102.943 150.004 107.789 150.004H135.914C140.031 150.004 143.495 147.157 144.444 143.33L147.928 146.368C150.617 148.713 154.062 150.004 157.63 150.004H246.07C247.688 150.004 249 148.692 249 147.074V2.92976C248.999 2.15279 248.691 1.40746 248.142 0.858127ZM138.843 141.215C138.843 142.83 137.529 144.145 135.914 144.145H107.789C106.173 144.145 104.859 142.83 104.859 141.215V93.4609C104.859 91.8454 106.173 90.5311 107.789 90.5311H118.922V124.281C118.922 125.898 120.233 127.21 121.851 127.21C123.469 127.21 124.781 125.898 124.781 124.281V90.5311H135.914C137.529 90.5311 138.844 91.8454 138.844 93.4609V141.215H138.843ZM147.645 23.6546L171.07 17.3779V28.2341L169.106 28.7603C168.355 28.9616 167.716 29.4523 167.327 30.1253C166.939 30.7982 166.833 31.5978 167.035 32.3484C168.161 36.55 165.658 40.8839 161.457 42.0099C160.705 42.2114 160.064 42.703 159.676 43.3775C159.288 44.0516 159.183 44.8526 159.386 45.6038L170.806 87.8914H164.926L161.896 76.0364C161.8 75.6591 161.631 75.3113 161.405 75.0089L147.645 23.6546ZM171.07 41.6697V66.3913L165.726 46.6052C167.958 45.4526 169.785 43.7282 171.07 41.6697ZM213.16 144.144H157.63C155.478 144.144 153.4 143.366 151.778 141.951L144.703 135.781V95.2603L157.494 82.4696L159.813 91.546C160.145 92.843 161.313 93.75 162.652 93.75L220.252 93.7536C222.514 93.7536 224.354 95.5934 224.354 97.8552C224.354 100.117 222.514 101.957 220.252 101.957H190.738C189.12 101.957 187.808 103.269 187.808 104.887C187.808 106.504 189.12 107.816 190.738 107.816H229.422C231.684 107.816 233.524 109.656 233.524 111.918C233.524 114.18 231.684 116.02 229.422 116.02H190.738C189.12 116.02 187.808 117.332 187.808 118.95C187.808 120.567 189.12 121.879 190.738 121.879H223.153C225.415 121.879 227.255 123.719 227.255 125.981C227.255 128.243 225.415 130.083 223.153 130.083H190.738C189.12 130.083 187.808 131.395 187.808 133.012C187.808 134.63 189.12 135.942 190.738 135.942H213.16C215.422 135.942 217.262 137.782 217.262 140.044C217.261 142.304 215.421 144.144 213.16 144.144ZM243.14 144.144H243.14H222.234C222.802 142.892 223.121 141.505 223.121 140.043C223.121 138.581 222.802 137.193 222.234 135.941H223.153C228.646 135.941 233.114 131.472 233.114 125.98C233.114 124.378 232.732 122.864 232.057 121.522C236.275 120.363 239.383 116.498 239.383 111.917C239.383 109.696 238.651 107.642 237.417 105.983V68.8515C237.417 67.2336 236.105 65.9217 234.487 65.9217C232.869 65.9217 231.557 67.2336 231.557 68.8515V102.19C230.869 102.039 230.155 101.957 229.422 101.957H229.325C229.894 100.705 230.213 99.3172 230.213 97.8552C230.213 92.3625 225.744 87.8943 220.252 87.8943H215.542C220.543 85.7497 224.055 80.7791 224.055 75.0019C224.055 67.2706 217.766 60.9807 210.034 60.9807C202.303 60.9807 196.013 67.2706 196.013 75.0019C196.013 80.7791 199.526 85.7497 204.526 87.8943H188.511V32.1872C193.745 31.0467 197.875 26.9172 199.015 21.6832H221.053C222.193 26.9172 226.323 31.0467 231.557 32.1872V41.2959C231.557 42.9137 232.869 44.2256 234.487 44.2256C236.104 44.2256 237.416 42.9137 237.416 41.2959V29.5716C237.416 27.9537 236.104 26.6418 234.487 26.6418C230.137 26.6418 226.598 23.1029 226.598 18.7534C226.598 17.1356 225.287 15.8236 223.669 15.8236H196.4C194.782 15.8236 193.47 17.1356 193.47 18.7534C193.47 23.1032 189.931 26.6418 185.582 26.6418C183.964 26.6418 182.652 27.9537 182.652 29.5716V87.894H176.93V5.86275L243.14 5.85952V144.144ZM210.035 83.1636C205.534 83.1636 201.873 79.5023 201.873 75.0022C201.873 70.5021 205.535 66.8405 210.035 66.8405C214.535 66.8405 218.196 70.5018 218.196 75.0019C218.196 79.502 214.535 83.1636 210.035 83.1636Z" fill="#452B4E"/>
</svg>
